<svg width="1046" height="306" viewBox="0 0 1046 306" fill="none" xmlns="http://www.w3.org/2000/svg">
<path d="M199.321 158.207H251.045C263.185 158.207 273.741 160.318 283.241 165.068C292.741 169.818 299.603 176.68 304.881 185.124C310.159 193.569 312.798 204.125 312.798 215.737C312.798 227.348 310.159 237.376 304.881 246.349C299.603 254.794 292.741 261.655 283.241 266.405C273.741 271.155 263.185 273.266 251.045 273.266H199.321V158.207ZM249.99 247.932C259.49 247.932 266.879 245.293 272.685 239.487C278.491 233.682 281.13 226.293 281.13 216.264C281.13 206.236 278.491 198.847 272.685 193.041C266.879 187.236 259.49 184.597 249.99 184.597H230.461V247.932H249.99Z" fill="#00FFBA"/>
<path d="M409.384 236.849H347.632C348.687 241.599 351.326 244.766 355.021 247.405C358.716 250.044 362.938 251.099 368.744 251.099C372.966 251.099 376.133 250.571 379.3 249.516C382.467 248.46 385.106 246.349 388.272 243.71L404.106 260.6C395.662 270.1 384.05 274.85 367.688 274.85C357.66 274.85 349.215 272.739 341.298 269.044C333.909 264.822 328.103 259.544 323.881 252.683C319.659 245.821 317.547 237.904 317.547 228.932C317.547 219.959 319.659 212.042 323.353 205.181C327.576 198.32 332.854 192.514 340.243 188.819C347.104 185.125 355.549 183.013 363.994 183.013C372.438 183.013 380.355 184.597 387.217 188.291C394.078 191.986 399.356 197.264 403.579 204.125C407.801 210.987 409.384 219.431 409.384 228.932C409.912 229.46 409.912 232.099 409.384 236.849ZM353.438 209.403C350.271 212.042 348.16 215.737 347.632 220.487H382.467C381.411 215.737 379.828 212.042 376.661 209.403C373.494 206.764 369.799 205.181 365.049 205.181C360.299 205.181 356.604 206.764 353.438 209.403Z" fill="#00FFBA"/>
<path d="M507.555 184.597L472.72 273.794H442.108L407.273 184.597H437.886L458.47 238.96L480.11 184.597H507.555V184.597Z" fill="#00FFBA"/>
<path d="M519.694 272.739C512.833 271.155 507.027 269.044 503.333 265.877L512.305 244.238C516 246.877 520.75 248.988 526.028 250.043C531.306 251.627 536.584 252.155 541.862 252.155C546.612 252.155 550.306 251.627 551.89 250.571C554.001 249.516 555.056 247.932 555.056 245.821C555.056 243.71 554.001 242.654 551.362 241.599C548.723 240.543 545.028 240.015 539.75 238.96C532.889 237.904 527.083 236.849 522.333 235.265C517.583 233.682 513.361 231.043 510.194 227.348C506.499 223.654 504.916 218.376 504.916 210.987C504.916 205.181 506.499 200.431 509.666 195.68C512.833 191.458 517.583 187.764 523.917 185.125C530.25 182.486 537.639 181.43 546.084 181.43C552.417 181.43 558.223 181.958 564.557 183.541C570.363 184.597 575.641 186.708 579.863 189.347L570.89 210.459C563.501 206.236 555.056 204.125 546.612 204.125C541.862 204.125 538.695 204.653 536.056 205.709C533.945 206.764 532.889 208.348 532.889 210.459C532.889 212.57 533.945 214.153 536.584 214.681C539.223 215.737 542.917 216.265 548.723 217.32C555.584 218.376 561.39 219.431 566.14 221.015C570.89 222.598 574.585 225.237 578.279 228.932C581.446 232.626 583.557 237.904 583.557 244.766C583.557 250.571 581.974 255.321 578.807 260.072C575.64 264.294 570.89 267.989 564.557 270.628C558.223 273.267 550.834 274.322 541.862 274.322C533.417 275.378 526.555 274.322 519.694 272.739Z" fill="#00FFBA"/>
<path d="M223.072 127.067C214.099 121.789 206.71 114.927 201.432 105.955C196.154 96.9823 193.515 86.4263 193.515 74.8148C193.515 63.2033 196.154 53.1752 201.432 43.6748C206.71 34.7023 213.571 27.3131 223.072 22.5629C232.044 17.285 242.6 14.646 254.212 14.646C264.24 14.646 273.213 16.7572 281.13 20.4518C289.046 24.1463 295.908 29.4243 301.186 36.8135L281.657 55.8141C274.796 46.8416 265.823 42.0914 255.795 42.0914C249.989 42.0914 244.711 43.6748 239.961 46.3138C235.211 48.9528 231.517 53.1752 229.405 57.9253C226.766 62.6755 225.711 68.4813 225.711 75.3426C225.711 82.204 226.766 87.4819 229.405 92.7599C232.044 97.5101 235.739 101.732 239.961 104.371C244.711 107.01 249.989 108.594 255.795 108.594C265.823 108.594 274.268 103.844 281.657 94.8711L301.186 113.872C295.908 120.733 289.046 126.539 281.13 130.233C273.213 133.928 264.24 136.039 254.212 136.039C242.6 134.984 232.044 132.345 223.072 127.067Z" fill="#00FFBA"/>
<path d="M324.937 128.122C317.548 124.428 311.742 118.622 308.047 111.761C304.353 104.899 301.714 96.9825 301.714 88.0099C301.714 79.0374 303.825 71.1204 308.047 64.259C312.27 57.3977 318.075 51.5919 324.937 47.8973C332.326 44.2027 340.243 42.0916 349.743 42.0916C358.716 42.0916 367.16 44.2027 374.549 47.8973C381.939 51.5919 387.744 57.3977 391.439 64.259C395.661 71.1204 397.772 79.0374 397.772 88.0099C397.772 96.9825 395.661 104.899 391.439 111.761C387.217 118.622 381.939 124.428 374.549 128.122C367.16 132.345 359.243 133.928 349.743 133.928C340.243 133.928 332.326 132.345 324.937 128.122ZM362.41 103.316C365.577 99.6214 367.16 94.3435 367.16 87.4821C367.16 81.1485 365.577 75.8706 362.41 72.176C359.243 68.4814 355.021 66.3702 349.743 66.3702C344.465 66.3702 340.243 68.4814 337.076 72.176C333.909 75.8706 332.326 81.1485 332.326 87.4821C332.326 94.3435 333.909 99.6214 337.076 103.316C340.243 107.011 344.465 109.122 349.743 109.122C354.493 109.122 358.716 107.538 362.41 103.316Z" fill="#00FFBA"/>
<path d="M407.273 10.4236H436.83V132.873H407.273V10.4236Z" fill="#00FFBA"/>
<path d="M470.081 128.122C462.692 124.428 456.886 118.622 453.191 111.761C449.497 104.899 446.858 96.9825 446.858 88.0099C446.858 79.0374 448.969 71.1204 453.191 64.259C457.414 57.3977 463.219 51.5919 470.081 47.8973C477.47 44.2027 485.387 42.0916 494.887 42.0916C503.86 42.0916 512.305 44.2027 519.694 47.8973C527.083 51.5919 532.889 57.3977 536.583 64.259C540.806 71.1204 542.917 79.0374 542.917 88.0099C542.917 96.9825 540.806 104.899 536.583 111.761C532.361 118.622 527.083 124.428 519.694 128.122C512.305 132.345 504.388 133.928 494.887 133.928C485.387 133.928 477.47 132.345 470.081 128.122ZM507.554 103.316C510.721 99.6214 512.305 94.3435 512.305 87.4821C512.305 81.1485 510.721 75.8706 507.554 72.176C504.388 68.4814 500.165 66.3702 494.887 66.3702C489.609 66.3702 485.387 68.4814 482.22 72.176C479.053 75.8706 477.47 81.1485 477.47 87.4821C477.47 94.3435 479.053 99.6214 482.22 103.316C485.387 107.011 489.609 109.122 494.887 109.122C499.637 109.122 503.86 107.538 507.554 103.316Z" fill="#00FFBA"/>
<path d="M687.533 51.5917C693.867 57.9253 697.034 67.9535 697.034 81.6762V132.873H667.477V86.9542C667.477 80.6206 666.422 75.8704 664.31 73.2314C662.199 70.0646 659.032 69.0091 654.81 69.0091C650.06 69.0091 646.893 70.5925 644.254 73.7592C641.615 76.926 640.032 82.204 640.032 88.5376V132.873H610.475V86.9542C610.475 74.8148 606.253 68.4813 597.808 68.4813C593.058 68.4813 589.363 70.0646 586.724 73.2314C584.085 76.3982 582.502 81.6762 582.502 88.0098V132.345H552.945V43.147H581.446V52.6473C584.613 48.9527 588.308 46.3138 592.53 44.7304C596.752 43.147 601.502 42.0914 606.78 42.0914C612.586 42.0914 617.864 43.147 622.614 45.786C627.365 48.425 631.059 51.5917 634.226 56.3419C637.393 51.5917 641.615 48.425 646.893 45.786C652.171 43.147 657.449 42.0914 663.783 42.0914C673.283 41.5636 681.728 45.2582 687.533 51.5917Z" fill="#00FFBA"/>
<path d="M786.231 47.3694C792.565 51.064 797.315 56.3419 801.01 63.2033C804.704 70.0647 806.816 78.5094 806.816 87.482C806.816 96.4545 804.704 104.899 801.01 111.761C797.315 118.622 792.037 124.428 786.231 128.122C779.898 131.817 773.037 133.928 765.12 133.928C754.036 133.928 745.591 130.234 740.313 123.372V132.345H711.812V10.4236H741.369V51.064C747.174 44.7304 755.091 42.0914 765.12 42.0914C773.037 41.5636 779.898 43.6748 786.231 47.3694ZM771.981 103.316C775.148 99.6213 776.731 94.3433 776.731 87.482C776.731 81.1484 775.148 75.8704 771.981 72.1759C768.814 68.4813 764.592 66.3701 759.314 66.3701C754.036 66.3701 749.813 68.4813 746.647 72.1759C743.48 75.8704 741.896 81.1484 741.896 87.482C741.896 94.3433 743.48 99.6213 746.647 103.316C749.813 107.01 754.036 109.122 759.314 109.122C764.064 109.122 768.286 107.538 771.981 103.316Z" fill="#00FFBA"/>
<path d="M818.427 28.3688C815.26 25.202 813.677 20.9796 813.677 16.7572C813.677 12.5349 815.26 8.31247 818.427 5.14569C821.594 1.97891 826.344 0.395508 831.622 0.395508C836.9 0.395508 841.65 1.97891 844.817 5.14569C847.984 8.31247 849.567 12.0071 849.567 16.7572C849.567 21.5074 847.984 25.7298 844.817 28.8966C841.65 32.0633 836.9 33.6467 831.622 33.6467C825.816 33.6467 821.594 31.5355 818.427 28.3688ZM816.316 43.1471H845.872V132.345H816.316V43.1471Z" fill="#00FFBA"/>
<path d="M929.793 52.1196C937.182 58.981 940.877 69.0091 940.877 83.2596V132.873H912.904V121.261C908.681 129.706 900.236 134.456 888.097 134.456C881.764 134.456 875.958 133.4 871.208 130.761C866.457 128.122 862.763 124.956 860.124 120.733C857.485 116.511 856.429 111.761 856.429 106.483C856.429 98.038 859.596 91.7044 865.93 86.9542C872.263 82.2041 881.764 80.0929 894.431 80.0929H911.32C910.792 70.5925 904.987 65.8424 893.375 65.8424C889.153 65.8424 884.93 66.3701 881.236 67.9535C877.013 69.5369 873.319 71.1203 870.68 73.7593L860.652 52.6474C865.402 49.4806 871.208 46.8417 877.541 44.7305C884.403 43.1471 891.264 42.0915 897.597 42.0915C911.848 41.5637 922.404 45.2583 929.793 52.1196ZM905.514 111.761C908.153 110.177 910.265 107.538 911.32 103.844V95.9268H898.653C890.208 95.9268 885.458 99.0936 885.458 104.899C885.458 107.538 886.514 109.649 888.625 111.233C890.736 112.816 893.375 113.872 896.542 113.872C899.709 114.4 902.875 113.344 905.514 111.761Z" fill="#00FFBA"/>
<path d="M1036.41 51.5919C1042.74 57.9254 1045.91 67.9536 1045.91 81.6763V132.873H1016.35V86.9543C1016.35 74.815 1011.6 68.4814 1002.63 68.4814C997.351 68.4814 993.656 70.0648 990.489 73.7594C987.322 77.4539 985.739 82.7319 985.739 89.5933V132.873H956.182V43.1471H984.684V52.6475C987.85 48.9529 992.073 46.3139 996.823 44.2027C1001.57 42.0915 1006.32 41.5637 1011.6 41.5637C1021.63 41.5637 1030.07 45.2583 1036.41 51.5919Z" fill="#00FFBA"/>
<path d="M50.4821 148.179C47.8431 152.401 43.6207 155.568 37.8149 157.679C43.6207 159.79 47.8431 162.957 50.4821 167.179C53.1211 171.402 54.1767 178.263 54.1767 186.708V255.849C54.1767 272.211 61.5658 280.656 76.3441 280.656H83.7333V305.462H70.5384C55.76 305.462 44.1485 301.767 36.7593 293.85C29.3702 285.934 25.1478 274.322 25.1478 259.016V186.18C25.1478 175.624 20.3976 170.346 11.4251 170.346H0.869141V145.012H11.4251C20.3976 145.012 25.1478 139.734 25.1478 129.178V56.3419C25.1478 41.0358 28.8424 29.4242 36.7593 21.5073C44.6763 13.5903 55.76 9.89575 70.5384 9.89575H83.7333V34.7022H76.3441C61.5658 34.7022 54.1767 43.147 54.1767 59.5087V128.65C54.1767 137.095 52.5933 143.428 50.4821 148.179Z" fill="white"/>
<path d="M148.124 148.179C145.485 152.401 141.263 155.568 135.457 157.679C141.263 159.79 145.485 162.957 148.124 167.179C150.763 171.402 151.819 178.263 151.819 186.708V255.849C151.819 272.211 159.208 280.656 173.987 280.656H181.376V305.462H168.181C153.402 305.462 141.791 301.767 134.402 293.85C127.013 285.934 122.79 274.322 122.79 259.016V186.18C122.79 175.624 118.04 170.346 109.067 170.346H98.5115V145.012H109.067C118.04 145.012 122.79 139.734 122.79 129.178V56.3419C122.79 41.0358 126.485 29.4242 134.402 21.5073C142.319 13.5903 153.402 9.89575 168.181 9.89575H181.376V34.7022H173.987C159.208 34.7022 151.819 43.147 151.819 59.5087V128.65C151.819 137.095 150.763 143.428 148.124 148.179Z" fill="white"/>
<path d="M609.947 231.571V269.044C609.947 271.683 607.836 273.794 605.197 273.794H603.614C602.558 273.794 602.03 274.322 602.03 275.378V289.1C602.03 290.156 602.558 290.684 603.614 290.684H605.197C617.336 290.684 626.837 281.183 626.837 269.044V234.737C626.837 230.515 630.003 227.348 634.226 227.348H640.032C641.087 227.348 641.615 226.82 641.615 225.765V218.903V212.042C641.615 210.986 641.087 210.459 640.032 210.459H634.754C630.531 210.459 627.365 207.292 627.365 203.069V168.763C627.365 156.623 617.864 147.123 605.725 147.123H604.141C603.086 147.123 602.558 147.651 602.558 148.706V162.429C602.558 163.485 603.086 164.013 604.141 164.013H605.725C608.364 164.013 610.475 166.124 610.475 168.763V206.236C610.475 213.098 614.697 218.903 621.559 218.903C614.17 218.903 609.947 224.709 609.947 231.571Z" fill="white"/>
<path d="M662.199 231.571V269.044C662.199 271.683 660.088 273.794 657.449 273.794H655.866C654.81 273.794 654.282 274.322 654.282 275.378V289.1C654.282 290.156 654.81 290.684 655.866 290.684H657.449C669.588 290.684 679.089 281.183 679.089 269.044V234.737C679.089 230.515 682.255 227.348 686.478 227.348H692.283C693.339 227.348 693.867 226.82 693.867 225.765V218.903V212.042C693.867 210.986 693.339 210.459 692.283 210.459H686.478C682.255 210.459 679.089 207.292 679.089 203.069V168.763C679.089 156.623 669.588 147.123 657.449 147.123H655.866C654.81 147.123 654.282 147.651 654.282 148.706V162.429C654.282 163.485 654.81 164.013 655.866 164.013H657.449C660.088 164.013 662.199 166.124 662.199 168.763V206.236C662.199 213.098 666.422 218.903 673.283 218.903C665.894 218.903 662.199 224.709 662.199 231.571Z" fill="white"/>
</svg>
